# Blender v2.80 (sub 75) OBJ File: ''
# www.blender.org
mtllib Bullet.mtl
o bullet
v 0.707107 -1.399044 -0.707107
v 0.000000 -1.399044 -1.000000
v 0.000000 1.399044 -1.000000
v 0.707107 1.399044 -0.707107
v -0.707107 -1.399044 -0.707107
v -0.707107 1.399044 -0.707107
v -1.000000 -1.399044 0.000000
v -1.000000 1.399044 0.000000
v -0.707107 -1.399044 0.707107
v -0.707107 1.399044 0.707107
v 0.000000 -1.399044 1.000000
v 0.000000 1.399044 1.000000
v 0.707107 -1.399044 0.707107
v 0.707107 1.399044 0.707107
v 1.000000 -1.399044 0.000000
v 1.000000 1.399044 0.000000
v 0.000000 -2.177486 -0.780096
v 0.551611 -2.177486 -0.551611
v 0.000000 -2.177486 0.000000
v -0.551611 -2.177486 -0.551611
v -0.780096 -2.177486 0.000000
v -0.551611 -2.177486 0.551611
v 0.000000 -2.177486 0.780097
v 0.551611 -2.177486 0.551611
v 0.780097 -2.177486 0.000000
v 0.347764 3.265040 -0.347764
v 0.000000 3.265040 -0.491812
v 0.000000 3.523299 0.000000
v -0.347764 3.265040 -0.347764
v -0.491812 3.265040 0.000000
v -0.347764 3.265040 0.347764
v 0.000000 3.265040 0.491812
v 0.347764 3.265040 0.347764
v 0.491812 3.265040 0.000000
v 0.561963 -1.463525 -0.561963
v 0.000000 -1.463525 -0.794736
v -0.561963 -1.463525 -0.561963
v -0.794736 -1.463525 0.000000
v -0.561963 -1.463525 0.561963
v 0.000000 -1.463525 0.794736
v 0.561963 -1.463525 0.561963
v 0.794736 -1.463525 0.000000
v 0.000000 -1.512383 -0.760682
v 0.537883 -1.512383 -0.537883
v 0.537883 -1.823317 -0.537883
v 0.000000 -1.823317 -0.760682
v -0.537883 -1.512383 -0.537883
v -0.537883 -1.823317 -0.537883
v -0.760682 -1.512383 0.000000
v -0.760682 -1.823317 0.000000
v -0.537883 -1.512383 0.537883
v -0.537883 -1.823317 0.537883
v 0.000000 -1.512383 0.760682
v 0.000000 -1.823317 0.760682
v 0.537883 -1.512383 0.537883
v 0.537883 -1.823317 0.537883
v 0.760682 -1.512383 0.000000
v 0.760682 -1.823317 0.000000
v 0.671005 -1.854180 -0.671005
v 0.000000 -1.854180 -0.948945
v -0.671005 -1.854180 -0.671005
v -0.948945 -1.854180 0.000000
v -0.671005 -1.854180 0.671005
v 0.000000 -1.854180 0.948945
v 0.671005 -1.854180 0.671005
v 0.948945 -1.854180 0.000000
v 0.671005 -2.128304 -0.671005
v 0.000000 -2.128304 -0.948945
v -0.671005 -2.128304 -0.671005
v -0.948945 -2.128304 0.000000
v -0.671005 -2.128304 0.671005
v 0.000000 -2.128304 0.948945
v 0.671005 -2.128304 0.671005
v 0.948945 -2.128304 0.000000
v 0.000000 1.399044 -0.911298
v 0.644385 1.399044 -0.644385
v -0.644385 1.399044 -0.644385
v -0.911298 1.399044 0.000000
v -0.644385 1.399044 0.644385
v 0.000000 1.399044 0.911298
v 0.644385 1.399044 0.644385
v 0.911298 1.399044 0.000000
v 0.000000 1.898376 -0.899556
v 0.636082 1.898376 -0.636082
v -0.636082 1.898376 -0.636082
v -0.899556 1.898376 0.000000
v -0.636082 1.898376 0.636082
v 0.000000 1.898376 0.899556
v 0.636082 1.898376 0.636082
v 0.899556 1.898376 0.000000
v 0.596121 2.369888 -0.596121
v 0.000000 2.369888 -0.843043
v 0.000000 2.861914 -0.723761
v 0.511776 2.861914 -0.511776
v -0.596121 2.369888 -0.596121
v -0.511776 2.861914 -0.511776
v -0.843043 2.369888 0.000000
v -0.723761 2.861914 0.000000
v -0.596121 2.369888 0.596121
v -0.511776 2.861914 0.511776
v 0.000000 2.369888 0.843043
v 0.000000 2.861914 0.723761
v 0.596121 2.369888 0.596121
v 0.511776 2.861914 0.511776
v 0.843043 2.369888 0.000000
v 0.723761 2.861914 0.000000
vt 0.375000 0.312500
vt 0.406250 0.312500
vt 0.406250 0.688440
vt 0.375000 0.688440
vt 0.437500 0.312500
vt 0.437500 0.688440
vt 0.468750 0.312500
vt 0.468750 0.688440
vt 0.500000 0.312500
vt 0.500000 0.688440
vt 0.531250 0.312500
vt 0.531250 0.688440
vt 0.562500 0.312500
vt 0.562500 0.688440
vt 0.593750 0.312500
vt 0.593750 0.688440
vt 0.625000 0.312500
vt 0.625000 0.688440
vt 0.500000 0.000000
vt 0.610485 0.045765
vt 0.500000 0.150000
vt 0.389515 0.045765
vt 0.343750 0.156250
vt 0.389515 0.266735
vt 0.500000 0.312500
vt 0.610485 0.266735
vt 0.656250 0.156250
vt 0.500000 0.000000
vt 0.610485 0.045765
vt 0.610485 0.045765
vt 0.500000 0.000000
vt 0.389515 0.045765
vt 0.389515 0.045765
vt 0.343750 0.156250
vt 0.343750 0.156250
vt 0.389515 0.266735
vt 0.389515 0.266735
vt 0.500000 0.312500
vt 0.500000 0.312500
vt 0.610485 0.266735
vt 0.610485 0.266735
vt 0.656250 0.156250
vt 0.656250 0.156250
vt 0.500000 0.000000
vt 0.610485 0.045765
vt 0.610485 0.045765
vt 0.500000 0.000000
vt 0.389515 0.045765
vt 0.389515 0.045765
vt 0.343750 0.156250
vt 0.343750 0.156250
vt 0.389515 0.266735
vt 0.389515 0.266735
vt 0.500000 0.312500
vt 0.500000 0.312500
vt 0.610485 0.266735
vt 0.610485 0.266735
vt 0.656250 0.156250
vt 0.656250 0.156250
vt 0.610485 0.045765
vt 0.500000 0.000000
vt 0.389515 0.045765
vt 0.343750 0.156250
vt 0.389515 0.266735
vt 0.500000 0.312500
vt 0.610485 0.266735
vt 0.656250 0.156250
vt 0.610485 0.045765
vt 0.500000 0.000000
vt 0.389515 0.045765
vt 0.343750 0.156250
vt 0.389515 0.266735
vt 0.500000 0.312500
vt 0.610485 0.266735
vt 0.656250 0.156250
vt 0.610485 0.954235
vt 0.500000 1.000000
vt 0.500000 1.000000
vt 0.610485 0.954235
vt 0.389515 0.954235
vt 0.389515 0.954235
vt 0.343750 0.843750
vt 0.343750 0.843750
vt 0.389515 0.733265
vt 0.389515 0.733265
vt 0.500000 0.687500
vt 0.500000 0.687500
vt 0.610485 0.733265
vt 0.610485 0.733265
vt 0.656250 0.843750
vt 0.656250 0.843750
vt 0.610485 0.954235
vt 0.500000 1.000000
vt 0.500000 0.837500
vt 0.389515 0.954235
vt 0.343750 0.843750
vt 0.389515 0.733265
vt 0.500000 0.687500
vt 0.610485 0.733265
vt 0.656250 0.843750
vt 0.500000 1.000000
vt 0.610485 0.954235
vt 0.389515 0.954235
vt 0.343750 0.843750
vt 0.389515 0.733265
vt 0.500000 0.687500
vt 0.610485 0.733265
vt 0.656250 0.843750
vt 0.610485 0.954235
vt 0.500000 1.000000
vt 0.500000 1.000000
vt 0.610485 0.954235
vt 0.389515 0.954235
vt 0.389515 0.954235
vt 0.343750 0.843750
vt 0.343750 0.843750
vt 0.389515 0.733265
vt 0.389515 0.733265
vt 0.500000 0.687500
vt 0.500000 0.687500
vt 0.610485 0.733265
vt 0.610485 0.733265
vt 0.656250 0.843750
vt 0.656250 0.843750
vn 0.3827 0.0000 -0.9239
vn -0.3827 0.0000 -0.9239
vn -0.9239 0.0000 -0.3827
vn -0.9239 0.0000 0.3827
vn -0.3827 0.0000 0.9239
vn 0.3827 0.0000 0.9239
vn 0.9239 0.0000 0.3827
vn 0.9239 0.0000 -0.3827
vn 0.0000 -1.0000 0.0000
vn 0.1232 -0.9468 -0.2974
vn -0.1232 -0.9468 -0.2974
vn -0.2974 -0.9468 -0.1232
vn -0.2974 -0.9468 0.1232
vn -0.1232 -0.9468 0.2974
vn 0.1232 -0.9468 0.2974
vn 0.2974 -0.9468 0.1232
vn 0.2974 -0.9468 -0.1232
vn 0.0669 0.9846 -0.1614
vn -0.0669 0.9846 -0.1614
vn -0.1614 0.9846 -0.0669
vn -0.1614 0.9846 0.0669
vn -0.0669 0.9846 0.1614
vn 0.0669 0.9846 0.1614
vn 0.1614 0.9846 0.0669
vn 0.1614 0.9846 -0.0669
vn 0.1151 -0.9537 -0.2778
vn -0.1151 -0.9537 -0.2778
vn -0.2778 -0.9537 -0.1151
vn -0.2778 -0.9537 0.1151
vn -0.1151 -0.9537 0.2778
vn 0.1151 -0.9537 0.2778
vn 0.2778 -0.9537 0.1151
vn 0.2778 -0.9537 -0.1151
vn 0.3217 -0.5414 -0.7768
vn -0.3217 -0.5414 -0.7768
vn -0.7768 -0.5414 -0.3217
vn -0.7768 -0.5414 0.3217
vn -0.3217 -0.5414 0.7768
vn 0.3217 -0.5414 0.7768
vn 0.7768 -0.5414 0.3217
vn 0.7768 -0.5414 -0.3217
vn 0.0000 1.0000 0.0000
vn 0.1891 0.8694 -0.4565
vn -0.1891 0.8694 -0.4565
vn -0.4565 0.8694 -0.1891
vn -0.4565 0.8694 0.1891
vn -0.1891 0.8694 0.4565
vn 0.1891 0.8694 0.4565
vn 0.4565 0.8694 0.1891
vn 0.4565 0.8694 -0.1891
vn 0.3826 0.0217 -0.9237
vn -0.3826 0.0217 -0.9237
vn -0.9237 0.0217 -0.3826
vn -0.9237 0.0217 0.3826
vn -0.3826 0.0217 0.9237
vn 0.3826 0.0217 0.9237
vn 0.9237 0.0217 0.3826
vn 0.9237 0.0217 -0.3826
vn 0.3734 0.2186 -0.9015
vn -0.3734 0.2186 -0.9015
vn -0.9015 0.2186 -0.3734
vn -0.9015 0.2186 0.3734
vn -0.3734 0.2186 0.9015
vn 0.3734 0.2186 0.9015
vn 0.9015 0.2186 0.3734
vn 0.9015 0.2186 -0.3734
vn 0.8158 0.4694 0.3379
vn 0.3379 0.4694 0.8158
vn -0.3379 0.4694 0.8158
vn -0.8158 0.4694 0.3379
vn -0.8158 0.4694 -0.3379
vn -0.3379 0.4694 -0.8158
vn 0.3379 0.4694 -0.8158
vn 0.8158 0.4694 -0.3379
vn 0.9183 0.1101 0.3804
vn 0.3804 0.1101 0.9183
vn -0.3804 0.1101 0.9183
vn -0.9183 0.1101 0.3804
vn -0.9183 0.1101 -0.3804
vn -0.3804 0.1101 -0.9183
vn 0.3804 0.1101 -0.9183
vn 0.9183 0.1101 -0.3804
usemtl blinn1SG
s off
f 1/1/1 2/2/1 3/3/1 4/4/1
f 2/2/2 5/5/2 6/6/2 3/3/2
f 5/5/3 7/7/3 8/8/3 6/6/3
f 7/7/4 9/9/4 10/10/4 8/8/4
f 9/9/5 11/11/5 12/12/5 10/10/5
f 11/11/6 13/13/6 14/14/6 12/12/6
f 13/13/7 15/15/7 16/16/7 14/14/7
f 15/15/8 1/17/8 4/18/8 16/16/8
f 17/19/9 18/20/9 19/21/9
f 20/22/9 17/19/9 19/21/9
f 21/23/9 20/22/9 19/21/9
f 22/24/9 21/23/9 19/21/9
f 23/25/9 22/24/9 19/21/9
f 24/26/9 23/25/9 19/21/9
f 25/27/9 24/26/9 19/21/9
f 18/20/9 25/27/9 19/21/9
f 2/28/10 1/29/10 35/30/10 36/31/10
f 5/32/11 2/28/11 36/31/11 37/33/11
f 7/34/12 5/32/12 37/33/12 38/35/12
f 9/36/13 7/34/13 38/35/13 39/37/13
f 11/38/14 9/36/14 39/37/14 40/39/14
f 13/40/15 11/38/15 40/39/15 41/41/15
f 15/42/16 13/40/16 41/41/16 42/43/16
f 1/29/17 15/42/17 42/43/17 35/30/17
f 43/44/1 44/45/1 45/46/1 46/47/1
f 47/48/2 43/44/2 46/47/2 48/49/2
f 49/50/3 47/48/3 48/49/3 50/51/3
f 51/52/4 49/50/4 50/51/4 52/53/4
f 53/54/5 51/52/5 52/53/5 54/55/5
f 55/56/6 53/54/6 54/55/6 56/57/6
f 57/58/7 55/56/7 56/57/7 58/59/7
f 44/45/8 57/58/8 58/59/8 45/46/8
f 46/47/18 45/46/18 59/60/18 60/61/18
f 48/49/19 46/47/19 60/61/19 61/62/19
f 50/51/20 48/49/20 61/62/20 62/63/20
f 52/53/21 50/51/21 62/63/21 63/64/21
f 54/55/22 52/53/22 63/64/22 64/65/22
f 56/57/23 54/55/23 64/65/23 65/66/23
f 58/59/24 56/57/24 65/66/24 66/67/24
f 45/46/25 58/59/25 66/67/25 59/60/25
f 60/61/1 59/60/1 67/68/1 68/69/1
f 61/62/2 60/61/2 68/69/2 69/70/2
f 62/63/3 61/62/3 69/70/3 70/71/3
f 63/64/4 62/63/4 70/71/4 71/72/4
f 64/65/5 63/64/5 71/72/5 72/73/5
f 65/66/6 64/65/6 72/73/6 73/74/6
f 66/67/7 65/66/7 73/74/7 74/75/7
f 59/60/8 66/67/8 74/75/8 67/68/8
f 68/69/26 67/68/26 18/20/26 17/19/26
f 69/70/27 68/69/27 17/19/27 20/22/27
f 70/71/28 69/70/28 20/22/28 21/23/28
f 71/72/29 70/71/29 21/23/29 22/24/29
f 72/73/30 71/72/30 22/24/30 23/25/30
f 73/74/31 72/73/31 23/25/31 24/26/31
f 74/75/32 73/74/32 24/26/32 25/27/32
f 67/68/33 74/75/33 25/27/33 18/20/33
f 36/31/34 35/30/34 44/45/34 43/44/34
f 37/33/35 36/31/35 43/44/35 47/48/35
f 38/35/36 37/33/36 47/48/36 49/50/36
f 39/37/37 38/35/37 49/50/37 51/52/37
f 40/39/38 39/37/38 51/52/38 53/54/38
f 41/41/39 40/39/39 53/54/39 55/56/39
f 42/43/40 41/41/40 55/56/40 57/58/40
f 35/30/41 42/43/41 57/58/41 44/45/41
f 4/76/42 3/77/42 75/78/42 76/79/42
f 3/77/42 6/80/42 77/81/42 75/78/42
f 6/80/42 8/82/42 78/83/42 77/81/42
f 8/82/42 10/84/42 79/85/42 78/83/42
f 10/84/42 12/86/42 80/87/42 79/85/42
f 12/86/42 14/88/42 81/89/42 80/87/42
f 14/88/42 16/90/42 82/91/42 81/89/42
f 16/90/42 4/76/42 76/79/42 82/91/42
usemtl blinn2SG
f 26/92/43 27/93/43 28/94/43
f 27/93/44 29/95/44 28/94/44
f 29/95/45 30/96/45 28/94/45
f 30/96/46 31/97/46 28/94/46
f 31/97/47 32/98/47 28/94/47
f 32/98/48 33/99/48 28/94/48
f 33/99/49 34/100/49 28/94/49
f 34/100/50 26/92/50 28/94/50
f 76/79/51 75/78/51 83/101/51 84/102/51
f 75/78/52 77/81/52 85/103/52 83/101/52
f 77/81/53 78/83/53 86/104/53 85/103/53
f 78/83/54 79/85/54 87/105/54 86/104/54
f 79/85/55 80/87/55 88/106/55 87/105/55
f 80/87/56 81/89/56 89/107/56 88/106/56
f 81/89/57 82/91/57 90/108/57 89/107/57
f 82/91/58 76/79/58 84/102/58 90/108/58
f 91/109/59 92/110/59 93/111/59 94/112/59
f 92/110/60 95/113/60 96/114/60 93/111/60
f 95/113/61 97/115/61 98/116/61 96/114/61
f 97/115/62 99/117/62 100/118/62 98/116/62
f 99/117/63 101/119/63 102/120/63 100/118/63
f 101/119/64 103/121/64 104/122/64 102/120/64
f 103/121/65 105/123/65 106/124/65 104/122/65
f 105/123/66 91/109/66 94/112/66 106/124/66
f 104/122/67 106/124/67 34/100/67 33/99/67
f 102/120/68 104/122/68 33/99/68 32/98/68
f 100/118/69 102/120/69 32/98/69 31/97/69
f 98/116/70 100/118/70 31/97/70 30/96/70
f 96/114/71 98/116/71 30/96/71 29/95/71
f 93/111/72 96/114/72 29/95/72 27/93/72
f 94/112/73 93/111/73 27/93/73 26/92/73
f 106/124/74 94/112/74 26/92/74 34/100/74
f 89/107/75 90/108/75 105/123/75 103/121/75
f 88/106/76 89/107/76 103/121/76 101/119/76
f 87/105/77 88/106/77 101/119/77 99/117/77
f 86/104/78 87/105/78 99/117/78 97/115/78
f 85/103/79 86/104/79 97/115/79 95/113/79
f 83/101/80 85/103/80 95/113/80 92/110/80
f 84/102/81 83/101/81 92/110/81 91/109/81
f 90/108/82 84/102/82 91/109/82 105/123/82
